<svg xmlns="http://www.w3.org/2000/svg" viewBox="0 0 512 512" width="512" height="512">
  <!-- Matches the macOS app icon (OakReader/Resources/AppIcon.icon):
       flat black rounded square + the white "o_letter" glyph. No gloss. -->
  <defs>
    <clipPath id="iconClip"><rect x="16" y="16" width="480" height="480" rx="108"/></clipPath>
  </defs>

  <rect x="16" y="16" width="480" height="480" rx="108" fill="#000000"/>

  <g clip-path="url(#iconClip)">
    <!-- o_letter.svg (viewBox 0 0 328 328), centered. -->
    <g transform="translate(256, 256) scale(1.5) translate(-168.875, -159.75)">
      <path d="M168.875 254.875C162.208 254.875 155.5 254.292 148.75 253.125C142.083 251.958 135.667 249.958 129.5 247.125C123.333 244.292 117.583 240.542 112.25 235.875C106.917 231.125 102.25 225.25 98.25 218.25C94.3333 211.167 91.25 202.833 89 193.25C86.75 183.583 85.625 172.375 85.625 159.625C85.625 146.958 86.75 135.792 89 126.125C91.25 116.458 94.3333 108.125 98.25 101.125C102.25 94.0417 106.917 88.1667 112.25 83.5C117.583 78.8333 123.333 75.125 129.5 72.375C135.667 69.5417 142.083 67.5417 148.75 66.375C155.5 65.2083 162.208 64.625 168.875 64.625C175.542 64.625 182.25 65.2083 189 66.375C195.75 67.5417 202.208 69.5417 208.375 72.375C214.542 75.125 220.292 78.8333 225.625 83.5C230.958 88.1667 235.583 94.0417 239.5 101.125C243.417 108.125 246.5 116.458 248.75 126.125C251 135.792 252.125 146.958 252.125 159.625C252.125 172.292 251 183.458 248.75 193.125C246.5 202.792 243.417 211.167 239.5 218.25C235.583 225.25 230.958 231.125 225.625 235.875C220.292 240.542 214.542 244.292 208.375 247.125C202.208 249.958 195.75 251.958 189 253.125C182.25 254.292 175.542 254.875 168.875 254.875ZM180.125 159.625C180.125 170.042 180.875 178.75 182.375 185.75C183.958 192.75 186.042 198.375 188.625 202.625C191.208 206.875 194.083 209.917 197.25 211.75C200.5 213.5 203.833 214.375 207.25 214.375C210.667 214.375 214 213.5 217.25 211.75C220.5 209.917 223.375 206.875 225.875 202.625C228.458 198.375 230.5 192.75 232 185.75C233.583 178.75 234.375 170.042 234.375 159.625C234.375 149.208 233.583 140.5 232 133.5C230.5 126.5 228.458 120.875 225.875 116.625C223.375 112.375 220.5 109.375 217.25 107.625C214 105.792 210.667 104.875 207.25 104.875C203.833 104.875 200.5 105.792 197.25 107.625C194.083 109.375 191.208 112.375 188.625 116.625C186.042 120.875 183.958 126.5 182.375 133.5C180.875 140.5 180.125 149.208 180.125 159.625Z" fill="white"/>
    </g>
  </g>
</svg>
